<svg width="375" height="250" viewBox="0 0 375 250" fill="none" xmlns="http://www.w3.org/2000/svg">
<path d="M187 226C173.736 226 160.603 223.388 148.349 218.312C136.095 213.236 124.961 205.797 115.582 196.418C106.203 187.039 98.7639 175.905 93.6882 163.651C88.6124 151.397 86 138.264 86 125C86 111.736 88.6124 98.6029 93.6882 86.349C98.7639 74.0951 106.204 62.9609 115.582 53.5822C124.961 44.2035 136.095 36.7639 148.349 31.6882C160.603 26.6124 173.736 24 187 24L187 125V226Z" fill="#404040"/>
<path d="M187 226C213.787 226 239.477 215.359 258.418 196.418C277.359 177.477 288 151.787 288 125C288 98.2131 277.359 72.5234 258.418 53.5822C239.477 34.641 213.787 24 187 24L187 125V226Z" fill="#404040"/>
</svg>
