<svg width="375" height="250" viewBox="0 0 375 250" fill="none" xmlns="http://www.w3.org/2000/svg">
<g clip-path="url(#clip0_595_90)">
<path d="M-15 24C-1.73649 24 11.3971 26.6124 23.651 31.6882C35.9049 36.7639 47.0391 44.2035 56.4178 53.5822C65.7965 62.9609 73.2361 74.0951 78.3118 86.349C83.3876 98.6029 86 111.736 86 125C86 138.264 83.3876 151.397 78.3118 163.651C73.2361 175.905 65.7965 187.039 56.4178 196.418C47.0391 205.797 35.9049 213.236 23.651 218.312C11.3971 223.388 -1.7365 226 -15 226L-15 125V24Z" fill="#404040"/>
<path d="M389 24C362.213 24 336.523 34.641 317.582 53.5822C298.641 72.5234 288 98.2131 288 125C288 151.787 298.641 177.477 317.582 196.418C336.523 215.359 362.213 226 389 226L389 125V24Z" fill="#404040"/>
<circle cx="142" cy="69" r="45" fill="#404040"/>
<circle cx="232" cy="181" r="45" fill="#404040"/>
</g>
<defs>
<clipPath id="clip0_595_90">
<rect width="375" height="250" fill="white"/>
</clipPath>
</defs>
</svg>
