<svg width="222" height="222" viewBox="0 0 222 222" fill="none" xmlns="http://www.w3.org/2000/svg">
<g clip-path="url(#clip0_65_95)">
<mask id="mask0_65_95" style="mask-type:luminance" maskUnits="userSpaceOnUse" x="0" y="0" width="222" height="222">
<path d="M222 0H0V222H222V0Z" fill="white"/>
</mask>
<g mask="url(#mask0_65_95)">
<path d="M191.147 46.6203C194.677 43.7848 195.261 38.6011 192.173 35.2901C178.097 20.1981 160.049 9.28687 140.026 3.86216C117.357 -2.27911 93.325 -1.07211 71.386 7.30952C49.447 15.6912 30.7317 30.8155 17.9325 50.5068C5.13322 70.1982 -1.09047 93.442 0.156667 116.894C1.4038 140.347 10.0575 162.799 24.8729 181.022C39.6882 199.245 59.902 212.299 82.6063 218.307C105.31 224.315 129.335 222.966 151.224 214.455C170.56 206.938 187.348 194.174 199.744 177.674C202.464 174.055 201.333 168.962 197.523 166.517L197.309 166.38C193.498 163.934 188.454 165.067 185.688 168.651C175.228 182.203 161.242 192.696 145.191 198.937C126.585 206.171 106.164 207.318 86.8653 202.211C67.5667 197.105 50.3852 186.008 37.7918 170.519C25.1989 155.029 17.8432 135.945 16.7832 116.01C15.7231 96.0755 21.0132 76.3185 31.8926 59.581C42.7719 42.8431 58.6798 29.9875 77.3282 22.8631C95.9762 15.7387 116.403 14.7127 135.672 19.9328C152.294 24.4361 167.314 33.3872 179.152 45.7527C182.283 49.023 187.419 49.6149 190.949 46.7794L191.147 46.6203Z" fill="#7A7A7A"/>
<path d="M211.348 73.8912C213.425 73.1229 214.494 70.8131 213.651 68.7649C212.808 66.7167 210.424 65.8274 208.407 66.7433L200.003 70.5619C198.289 71.3407 197.537 73.359 198.253 75.1002C198.97 76.8412 200.924 77.7459 202.69 77.093L211.348 73.8912Z" fill="#7A7A7A"/>
<path d="M216.069 90.8154C218.244 90.3973 219.675 88.2934 219.179 86.135C218.683 83.9763 216.476 82.709 214.337 83.2828L205.421 85.674C203.603 86.1619 202.531 88.0301 202.952 89.8648C203.374 91.6995 205.155 92.9121 207.003 92.557L216.069 90.8154Z" fill="#7A7A7A"/>
<path d="M217.966 108.722C220.18 108.674 221.944 106.84 221.817 104.629C221.69 102.418 219.727 100.799 217.522 101.005L208.331 101.868C206.457 102.044 205.086 103.705 205.195 105.585C205.302 107.464 206.855 108.958 208.737 108.918L217.966 108.722Z" fill="#7A7A7A"/>
<path d="M216.669 127.76C218.857 128.106 220.919 126.615 221.186 124.416C221.454 122.218 219.81 120.275 217.603 120.087L208.406 119.303C206.53 119.143 204.886 120.535 204.658 122.404C204.431 124.273 205.693 126.019 207.552 126.313L216.669 127.76Z" fill="#7A7A7A"/>
<path d="M212.559 144.653C214.662 145.35 216.938 144.212 217.558 142.086C218.178 139.96 216.871 137.776 214.724 137.233L205.775 134.97C203.949 134.508 202.102 135.616 201.575 137.423C201.047 139.23 202.01 141.158 203.797 141.75L212.559 144.653Z" fill="#7A7A7A"/>
<path d="M205.984 160.242C207.95 161.262 210.378 160.497 211.326 158.495C212.273 156.494 211.326 154.131 209.292 153.257L200.811 149.611C199.081 148.867 197.082 149.669 196.277 151.371C195.471 153.072 196.118 155.127 197.789 155.994L205.984 160.242Z" fill="#7A7A7A"/>
<path d="M204.066 58.2214C205.992 57.1288 206.675 54.6773 205.513 52.7914C204.352 50.9056 201.855 50.4117 200.012 51.6404L192.333 56.7619C190.767 57.8063 190.349 59.9197 191.336 61.5226C192.323 63.1257 194.399 63.7039 196.036 62.7752L204.066 58.2214Z" fill="#7A7A7A"/>
<path d="M95.4239 132.151C100.495 132.151 104.606 128.04 104.606 122.969C104.606 117.898 100.495 113.787 95.4239 113.787C90.353 113.787 86.2422 117.898 86.2422 122.969C86.2422 128.04 90.353 132.151 95.4239 132.151Z" fill="#7A7A7A"/>
<path d="M110.836 107.229C115.907 107.229 120.018 103.118 120.018 98.0473C120.018 92.9764 115.907 88.8656 110.836 88.8656C105.765 88.8656 101.654 92.9764 101.654 98.0473C101.654 103.118 105.765 107.229 110.836 107.229Z" fill="#7A7A7A"/>
<path d="M125.592 132.151C130.663 132.151 134.774 128.04 134.774 122.969C134.774 117.898 130.663 113.787 125.592 113.787C120.521 113.787 116.411 117.898 116.411 122.969C116.411 128.04 120.521 132.151 125.592 132.151Z" fill="#7A7A7A"/>
<path d="M42.4653 130.183C50.8866 130.183 57.7135 123.356 57.7135 114.935C57.7135 106.514 50.8866 99.6868 42.4653 99.6868C34.044 99.6868 27.2172 106.514 27.2172 114.935C27.2172 123.356 34.044 130.183 42.4653 130.183Z" fill="#7A7A7A"/>
<path d="M86.0783 62.9601C94.4996 62.9601 101.326 56.1333 101.326 47.712C101.326 39.2906 94.4996 32.4638 86.0783 32.4638C77.657 32.4638 70.8301 39.2906 70.8301 47.712C70.8301 56.1333 77.657 62.9601 86.0783 62.9601Z" fill="#7A7A7A"/>
<path d="M134.61 62.9601C143.031 62.9601 149.858 56.1333 149.858 47.712C149.858 39.2906 143.031 32.4638 134.61 32.4638C126.189 32.4638 119.362 39.2906 119.362 47.712C119.362 56.1333 126.189 62.9601 134.61 62.9601Z" fill="#7A7A7A"/>
<path d="M72.9616 177.731C81.3829 177.731 88.2097 170.904 88.2097 162.483C88.2097 154.062 81.3829 147.235 72.9616 147.235C64.5403 147.235 57.7134 154.062 57.7134 162.483C57.7134 170.904 64.5403 177.731 72.9616 177.731Z" fill="#7A7A7A"/>
<path d="M151.334 177.731C159.755 177.731 166.582 170.904 166.582 162.483C166.582 154.062 159.755 147.235 151.334 147.235C142.913 147.235 136.086 154.062 136.086 162.483C136.086 170.904 142.913 177.731 151.334 177.731Z" fill="#7A7A7A"/>
<path d="M181.83 130.183C190.251 130.183 197.078 123.356 197.078 114.935C197.078 106.514 190.251 99.6868 181.83 99.6868C173.409 99.6868 166.582 106.514 166.582 114.935C166.582 123.356 173.409 130.183 181.83 130.183Z" fill="#7A7A7A"/>
</g>
</g>
<defs>
<clipPath id="clip0_65_95">
<rect width="222" height="222" fill="white"/>
</clipPath>
</defs>
</svg>
