<!-- icon666.com - MILLIONS OF FREE VECTOR ICONS --><svg id="svg1059" viewBox="0 0 12.7 12.7" xmlns="http://www.w3.org/2000/svg" xmlns:dc="http://purl.org/dc/elements/1.1/" xmlns:cc="http://creativecommons.org/ns#" xmlns:rdf="http://www.w3.org/1999/02/22-rdf-syntax-ns#" xmlns:svg="http://www.w3.org/2000/svg" xmlns:sodipodi="http://sodipodi.sourceforge.net/DTD/sodipodi-0.dtd" xmlns:inkscape="http://www.inkscape.org/namespaces/inkscape" inkscape:version="0.92.4 (5da689c313, 2019-01-14)" sodipodi:docname="arrowhead left.svg" inkscape:export-filename="/media/taufik/TR 09R1420 x128/TR Design Studio Creative/Project Design/TR Creative Design/Icon Design/Project/Arrow Pixel Art/Line/Marketplace/38-arrowheads, speed, arrow, game, application, mobile, up, down, left, right.png" inkscape:export-xdpi="96" inkscape:export-ydpi="96"><g id="layer1" transform="translate(169.333 -118.746)" inkscape:label="Layer 1" inkscape:groupmode="layer"><path id="rect4454" d="m-160.3375 119.27534c.28858 0 .52917.24058.52917.52916s-.24059.52917-.52917.52917h-1.05885c-.28858 0-.52916-.24059-.52916-.52917s.24058-.52916.52916-.52916zm1.05834 1.05833c.28858 0 .52916.24059.52916.52917s-.24058.52968-.52916.52968-.52917-.2411-.52917-.52968.24059-.52917.52917-.52917zm-3.17604 0c.28858 0 .52969.24059.52969.52917s-.24111.52968-.52969.52968-.52916-.2411-.52916-.52968.24058-.52917.52916-.52917zm2.1177 1.05885c.28858 0 .52917.24058.52917.52917 0 .28858-.24059.52916-.52917.52916-.28859 0-.52968-.24058-.52968-.52916 0-.28859.24109-.52917.52968-.52917zm-3.17396 0c.28858 0 .5271.24058.5271.52917 0 .28858-.23852.52916-.5271.52916s-.52917-.24058-.52917-.52916c0-.28859.24059-.52917.52917-.52917zm2.11511 1.05833c.28858 0 .52917.24059.52917.52917s-.24059.52968-.52917.52968-.52916-.2411-.52916-.52968.24058-.52917.52916-.52917zm-3.17396 0c.28859 0 .52968.24059.52968.52917s-.24109.52968-.52968.52968c-.28858 0-.52917-.2411-.52917-.52968s.24059-.52917.52917-.52917zm2.11511 1.05885c.28858 0 .52969.24059.52969.52917s-.24111.5271-.52969.5271-.52916-.23852-.52916-.5271.24058-.52917.52916-.52917zm-3.17345 0c.28858 0 .52917.24059.52917.52917s-.24059.5271-.52917.5271-.52916-.23852-.52916-.5271.24058-.52917.52916-.52917zm2.11719 1.05627c.28858 0 .5271.2411.5271.52968s-.23852.52917-.5271.52917-.52917-.24059-.52917-.52917.24059-.52968.52917-.52968zm-3.17604 0c.28858 0 .52969.2411.52969.52968s-.24111.52917-.52969.52917-.52916-.24059-.52916-.52917.24058-.52968.52916-.52968zm4.2323 1.05885c.28858 0 .52969.24059.52969.52917s-.24111.52916-.52969.52916-.52916-.24058-.52916-.52916.24058-.52917.52916-.52917zm-3.17345 0c.28858 0 .52917.24059.52917.52917s-.24059.52916-.52917.52916-.52916-.24058-.52916-.52916.24058-.52917.52916-.52917zm4.2323 1.05833c.28858 0 .52917.24111.52917.52969s-.24059.52916-.52917.52916-.52916-.24058-.52916-.52916.24058-.52969.52916-.52969zm-3.17396 0c.28859 0 .52968.24111.52968.52969s-.24109.52916-.52968.52916c-.28858 0-.52917-.24058-.52917-.52916s.24059-.52969.52917-.52969zm4.23281 1.05885c.28858 0 .52917.24059.52917.52917 0 .28859-.24059.52917-.52917.52917-.28859 0-.52968-.24058-.52968-.52917 0-.28858.24109-.52917.52968-.52917zm-3.17396 0c.28858 0 .5271.24059.5271.52917 0 .28859-.23852.52917-.5271.52917s-.52917-.24058-.52917-.52917c0-.28858.24059-.52917.52917-.52917zm4.2323 1.05834c.28858 0 .52916.2411.52916.52968s-.24058.52917-.52916.52917-.52917-.24059-.52917-.52917.24059-.52968.52917-.52968zm-3.17604 0c.28858 0 .52969.2411.52969.52968s-.24111.52917-.52969.52917-.52916-.24059-.52916-.52917.24058-.52968.52916-.52968zm2.1177 1.05885c.28858 0 .52917.24058.52917.52916s-.24059.52917-.52917.52917h-1.05885c-.28858 0-.52916-.24059-.52916-.52917s.24058-.52917.52916-.52916z" inkscape:connector-curvature="0" font-variant-ligatures="normal" font-variant-position="normal" font-variant-caps="normal" font-variant-numeric="normal" font-variant-alternates="normal" font-feature-settings="normal" text-indent="0" text-align="start" text-decoration-line="none" text-decoration-style="solid" text-decoration-color="rgb(0,0,0)" text-transform="none" text-orientation="mixed" white-space="normal" shape-padding="0" isolation="auto" mix-blend-mode="normal" solid-color="rgb(0,0,0)" solid-opacity="1" vector-effect="none" paint-order="normal"></path></g></svg>