<svg width="171" height="121" viewBox="0 0 171 121" fill="none" xmlns="http://www.w3.org/2000/svg">
<g clip-path="url(#clip0_145_2)">
<rect x="2" y="2" width="167" height="117" rx="13" stroke="#404040" stroke-width="4"/>
<path d="M109.791 54.7821L78.4777 46.4821C74.9698 45.5523 73.5897 41.3126 75.8782 38.496L95.0466 14.9041C96.2434 13.4312 98.1707 12.7628 100.022 13.1785L136.89 21.4549C140.785 22.3294 142.135 27.1915 139.249 29.9491L114.526 53.5645C113.267 54.7669 111.474 55.2281 109.791 54.7821Z" fill="#404040" stroke="#404040"/>
<circle cx="67" cy="88" r="24" fill="#404040"/>
<path d="M9.64824 39.4971L18.3886 26.2244C20.8264 22.5225 25.4102 20.8671 29.6509 22.1572L43.4105 26.3432C47.6217 27.6244 50.5 31.5085 50.5 35.9103L50.5 56.0242C50.5 58.5775 49.5233 61.0341 47.7701 62.8904L37.5394 73.723C35.0462 76.3628 31.3179 77.4438 27.7993 76.5469L15.53 73.4194C11.1001 72.2902 8 68.3008 8 63.7293L8 44.9969C8 43.0419 8.57304 41.1298 9.64824 39.4971Z" fill="#404040" stroke="#404040"/>
<path d="M101.437 102.281L117.351 69.9933C118.568 67.5247 121.551 66.5035 124.025 67.7083L154.559 82.5761C158.507 84.4983 158.237 90.2112 154.126 91.7531L107.678 109.173C103.436 110.764 99.4346 106.345 101.437 102.281Z" fill="#404040" stroke="#404040"/>
</g>
<defs>
<clipPath id="clip0_145_2">
<rect width="171" height="121" fill="white"/>
</clipPath>
</defs>
</svg>
