<!-- icon666.com - MILLIONS OF FREE VECTOR ICONS --><svg fill="none" viewBox="3 3 18 18" xmlns="http://www.w3.org/2000/svg"><path clip-rule="evenodd" d="m4.32315 20.6859c-.79954-.2461-1.24167-1.1149-1.01306-1.9298.32789-1.1688.89457-2.0836 1.71044-2.7245 1.04078-.8176 2.35415-1.3454 3.92833-1.5933.09635-.0152.18832-.0569.26632-.1222.24735-.2073.29062-.5929.08919-.8567-.87447-1.1449-1.50788-2.9439-1.50788-5.60043 0-1.25244.37891-2.40317 1.1006-3.24497.72524-.84596 1.78381-1.364 3.10291-1.364s2.3777.51804 3.1029 1.364c.7217.8418 1.1006 1.99253 1.1006 3.24497 0 2.84513-.6347 4.45723-1.5079 5.60043-.0633.083-.1053.183-.1207.2902-.049.3411.1762.6414.4763.6887 1.5741.2479 2.8875.7757 3.9283 1.5933.8158.6409 1.3825 1.5557 1.7104 2.7245.0398.1418.06.2887.06.4362 0 .8492-.6602 1.5577-1.4985 1.5577h-14.50276c-.14416 0-.28746-.0216-.42549-.0641z" fill="#404040" fill-rule="evenodd"></path></svg>